# WaveFront *.obj file (generated by Autodesk ATF)

mtllib MainDoorGroundFloor.mtl

g MainDoorGroundFloor

v -26.099999 0.000000 -1.000000
v -26.099999 0.000000 0.000000
v -26.099999 2.500000 -1.000000
v -26.099999 2.500000 0.000000
v -25.650001 1.160000 -1.000000
v -25.650001 1.160000 0.000000
v -25.650001 1.580000 -1.000000
v -25.650001 1.580000 0.000000
v -25.650001 1.780000 -1.000000
v -25.650001 1.780000 0.000000
v -25.650001 2.200000 -1.000000
v -25.650001 2.200000 0.000000
v -25.150001 1.160000 -1.000000
v -25.150001 1.160000 0.000000
v -25.150001 1.580000 -1.000000
v -25.150001 1.580000 0.000000
v -25.150001 1.780000 -1.000000
v -25.150001 1.780000 0.000000
v -25.150001 2.200000 -1.000000
v -25.150001 2.200000 0.000000
v -24.849999 1.160000 -1.000000
v -24.849999 1.160000 0.000000
v -24.849999 1.580000 -1.000000
v -24.849999 1.580000 0.000000
v -24.849999 1.780000 -1.000000
v -24.849999 1.780000 0.000000
v -24.849999 2.200000 -1.000000
v -24.849999 2.200000 0.000000
v -24.349999 1.160000 -1.000000
v -24.349999 1.160000 0.000000
v -24.349999 1.580000 -1.000000
v -24.349999 1.580000 0.000000
v -24.349999 1.780000 -1.000000
v -24.349999 1.780000 0.000000
v -24.349999 2.200000 -1.000000
v -24.349999 2.200000 0.000000
v -23.900001 0.000000 -1.000000
v -23.900001 0.000000 0.000000
v -23.900001 2.500000 -1.000000
v -23.900001 2.500000 0.000000
vt -0.042000 0.000000 0.000000
vt -0.000000 0.000000 0.000000
vt -0.000000 0.100000 0.000000
vt -0.042000 0.100000 0.000000
vt -0.050000 0.000000 0.000000
vt -0.000000 0.000000 0.000000
vt -0.000000 0.100000 0.000000
vt -0.050000 0.100000 0.000000
vt -0.042000 0.000000 0.000000
vt -0.000000 0.000000 0.000000
vt -0.000000 0.100000 0.000000
vt -0.042000 0.100000 0.000000
vt -0.050000 0.000000 0.000000
vt -0.000000 0.000000 0.000000
vt -0.000000 0.100000 0.000000
vt -0.050000 0.100000 0.000000
vt -0.042000 0.000000 0.000000
vt -0.000000 0.000000 0.000000
vt -0.000000 0.100000 0.000000
vt -0.042000 0.100000 0.000000
vt -0.050000 0.000000 0.000000
vt -0.000000 0.000000 0.000000
vt -0.000000 0.100000 0.000000
vt -0.050000 0.100000 0.000000
vt -0.042000 0.000000 0.000000
vt -0.000000 0.000000 0.000000
vt -0.000000 0.100000 0.000000
vt -0.042000 0.100000 0.000000
vt -0.050000 0.000000 0.000000
vt -0.000000 0.000000 0.000000
vt -0.000000 0.100000 0.000000
vt -0.050000 0.100000 0.000000
vt -0.042000 0.000000 0.000000
vt -0.000000 0.000000 0.000000
vt -0.000000 0.100000 0.000000
vt -0.042000 0.100000 0.000000
vt -0.050000 0.000000 0.000000
vt -0.000000 0.000000 0.000000
vt -0.000000 0.100000 0.000000
vt -0.050000 0.100000 0.000000
vt -0.042000 0.000000 0.000000
vt -0.000000 0.000000 0.000000
vt -0.000000 0.100000 0.000000
vt -0.042000 0.100000 0.000000
vt -0.050000 0.000000 0.000000
vt -0.000000 0.000000 0.000000
vt -0.000000 0.100000 0.000000
vt -0.050000 0.100000 0.000000
vt -0.042000 0.000000 0.000000
vt -0.000000 0.000000 0.000000
vt -0.000000 0.100000 0.000000
vt -0.042000 0.100000 0.000000
vt -0.050000 0.000000 0.000000
vt -0.000000 0.000000 0.000000
vt -0.000000 0.100000 0.000000
vt -0.050000 0.100000 0.000000
vt -0.042000 0.000000 0.000000
vt -0.000000 0.000000 0.000000
vt -0.000000 0.100000 0.000000
vt -0.042000 0.100000 0.000000
vt -0.050000 0.000000 0.000000
vt -0.000000 0.000000 0.000000
vt -0.000000 0.100000 0.000000
vt -0.050000 0.100000 0.000000
vt 0.000000 0.000000 0.000000
vt 0.220000 0.000000 0.000000
vt 0.220000 0.100000 0.000000
vt 0.000000 0.100000 0.000000
vt 0.000000 0.000000 0.000000
vt 0.250000 0.000000 0.000000
vt 0.250000 0.100000 0.000000
vt 0.000000 0.100000 0.000000
vt 0.000000 0.000000 0.000000
vt 0.220000 0.000000 0.000000
vt 0.220000 0.100000 0.000000
vt 0.000000 0.100000 0.000000
vt 0.000000 0.000000 0.000000
vt 0.250000 0.000000 0.000000
vt 0.250000 0.100000 0.000000
vt 0.000000 0.100000 0.000000
vt 0.015000 -0.009000 0.000000
vt 0.015000 0.033000 0.000000
vt 0.065000 0.033000 0.000000
vt 0.065000 -0.009000 0.000000
vt -0.065000 -0.009000 0.000000
vt -0.065000 0.033000 0.000000
vt -0.015000 0.033000 0.000000
vt -0.015000 -0.009000 0.000000
vt 0.015000 0.053000 0.000000
vt 0.015000 0.095000 0.000000
vt 0.065000 0.095000 0.000000
vt 0.065000 0.053000 0.000000
vt -0.065000 0.053000 0.000000
vt -0.065000 0.095000 0.000000
vt -0.015000 0.095000 0.000000
vt -0.015000 0.053000 0.000000
vt -0.110000 0.125000 0.000000
vt -0.110000 -0.125000 0.000000
vt 0.110000 -0.125000 0.000000
vt 0.110000 0.125000 0.000000
vt -0.015000 0.033000 0.000000
vt -0.015000 -0.009000 0.000000
vt -0.065000 -0.009000 0.000000
vt -0.065000 0.033000 0.000000
vt 0.065000 0.033000 0.000000
vt 0.065000 -0.009000 0.000000
vt 0.015000 -0.009000 0.000000
vt 0.015000 0.033000 0.000000
vt -0.015000 0.095000 0.000000
vt -0.015000 0.053000 0.000000
vt -0.065000 0.053000 0.000000
vt -0.065000 0.095000 0.000000
vt 0.065000 0.095000 0.000000
vt 0.065000 0.053000 0.000000
vt 0.015000 0.053000 0.000000
vt 0.015000 0.095000 0.000000
vt 0.110000 -0.125000 0.000000
vt 0.110000 0.125000 0.000000
vt -0.110000 0.125000 0.000000
vt -0.110000 -0.125000 0.000000
vn 0.100000 0.000000 0.000000
vn 0.100000 0.000000 0.000000
vn 0.100000 0.000000 0.000000
vn 0.100000 0.000000 0.000000
vn 0.000000 0.100000 0.000000
vn 0.000000 0.100000 0.000000
vn 0.000000 0.100000 0.000000
vn 0.000000 0.100000 0.000000
vn -0.100000 0.000000 0.000000
vn -0.100000 0.000000 0.000000
vn -0.100000 0.000000 0.000000
vn -0.100000 0.000000 0.000000
vn 0.000000 -0.100000 0.000000
vn 0.000000 -0.100000 0.000000
vn 0.000000 -0.100000 0.000000
vn 0.000000 -0.100000 0.000000
vn 0.100000 0.000000 0.000000
vn 0.100000 0.000000 0.000000
vn 0.100000 0.000000 0.000000
vn 0.100000 0.000000 0.000000
vn 0.000000 0.100000 0.000000
vn 0.000000 0.100000 0.000000
vn 0.000000 0.100000 0.000000
vn 0.000000 0.100000 0.000000
vn -0.100000 0.000000 0.000000
vn -0.100000 0.000000 0.000000
vn -0.100000 0.000000 0.000000
vn -0.100000 0.000000 0.000000
vn 0.000000 -0.100000 0.000000
vn 0.000000 -0.100000 0.000000
vn 0.000000 -0.100000 0.000000
vn 0.000000 -0.100000 0.000000
vn 0.100000 0.000000 0.000000
vn 0.100000 0.000000 0.000000
vn 0.100000 0.000000 0.000000
vn 0.100000 0.000000 0.000000
vn 0.000000 0.100000 0.000000
vn 0.000000 0.100000 0.000000
vn 0.000000 0.100000 0.000000
vn 0.000000 0.100000 0.000000
vn -0.100000 0.000000 0.000000
vn -0.100000 0.000000 0.000000
vn -0.100000 0.000000 0.000000
vn -0.100000 0.000000 0.000000
vn 0.000000 -0.100000 0.000000
vn 0.000000 -0.100000 0.000000
vn 0.000000 -0.100000 0.000000
vn 0.000000 -0.100000 0.000000
vn 0.100000 0.000000 0.000000
vn 0.100000 0.000000 0.000000
vn 0.100000 0.000000 0.000000
vn 0.100000 0.000000 0.000000
vn 0.000000 0.100000 0.000000
vn 0.000000 0.100000 0.000000
vn 0.000000 0.100000 0.000000
vn 0.000000 0.100000 0.000000
vn -0.100000 0.000000 0.000000
vn -0.100000 0.000000 0.000000
vn -0.100000 0.000000 0.000000
vn -0.100000 0.000000 0.000000
vn 0.000000 -0.100000 0.000000
vn 0.000000 -0.100000 0.000000
vn 0.000000 -0.100000 0.000000
vn 0.000000 -0.100000 0.000000
vn 0.000000 -0.100000 0.000000
vn 0.000000 -0.100000 0.000000
vn 0.000000 -0.100000 0.000000
vn 0.000000 -0.100000 0.000000
vn 0.100000 0.000000 0.000000
vn 0.100000 0.000000 0.000000
vn 0.100000 0.000000 0.000000
vn 0.100000 0.000000 0.000000
vn 0.000000 0.100000 0.000000
vn 0.000000 0.100000 0.000000
vn 0.000000 0.100000 0.000000
vn 0.000000 0.100000 0.000000
vn -0.100000 0.000000 0.000000
vn -0.100000 0.000000 0.000000
vn -0.100000 0.000000 0.000000
vn -0.100000 0.000000 0.000000
vn 0.000000 0.000000 0.100000
vn 0.000000 0.000000 0.100000
vn 0.000000 0.000000 0.100000
vn 0.000000 0.000000 0.100000
vn 0.000000 0.000000 0.100000
vn 0.000000 0.000000 0.100000
vn 0.000000 0.000000 0.100000
vn 0.000000 0.000000 0.100000
vn 0.000000 0.000000 0.100000
vn 0.000000 0.000000 0.100000
vn 0.000000 0.000000 0.100000
vn 0.000000 0.000000 0.100000
vn 0.000000 0.000000 0.100000
vn 0.000000 0.000000 0.100000
vn 0.000000 0.000000 0.100000
vn 0.000000 0.000000 0.100000
vn 0.000000 0.000000 0.100000
vn 0.000000 0.000000 0.100000
vn 0.000000 0.000000 0.100000
vn 0.000000 0.000000 0.100000
vn 0.000000 0.000000 -0.100000
vn 0.000000 0.000000 -0.100000
vn 0.000000 0.000000 -0.100000
vn 0.000000 0.000000 -0.100000
vn 0.000000 0.000000 -0.100000
vn 0.000000 0.000000 -0.100000
vn 0.000000 0.000000 -0.100000
vn 0.000000 0.000000 -0.100000
vn 0.000000 0.000000 -0.100000
vn 0.000000 0.000000 -0.100000
vn 0.000000 0.000000 -0.100000
vn 0.000000 0.000000 -0.100000
vn 0.000000 0.000000 -0.100000
vn 0.000000 0.000000 -0.100000
vn 0.000000 0.000000 -0.100000
vn 0.000000 0.000000 -0.100000
vn 0.000000 0.000000 -0.100000
vn 0.000000 0.000000 -0.100000
vn 0.000000 0.000000 -0.100000
vn 0.000000 0.000000 -0.100000
usemtl 150,75,0
f 24/1/1 22/2/2 23/4/4
f 23/4/4 22/2/2 21/3/3
f 22/5/5 30/6/6 21/8/8
f 21/8/8 30/6/6 29/7/7
f 30/9/9 32/10/10 29/12/12
f 29/12/12 32/10/10 31/11/11
f 32/13/13 24/14/14 31/16/16
f 31/16/16 24/14/14 23/15/15
f 8/17/17 6/18/18 7/20/20
f 7/20/20 6/18/18 5/19/19
f 6/21/21 14/22/22 5/24/24
f 5/24/24 14/22/22 13/23/23
f 14/25/25 16/26/26 13/28/28
f 13/28/28 16/26/26 15/27/27
f 16/29/29 8/30/30 15/32/32
f 15/32/32 8/30/30 7/31/31
f 28/33/33 26/34/34 27/36/36
f 27/36/36 26/34/34 25/35/35
f 26/37/37 34/38/38 25/40/40
f 25/40/40 34/38/38 33/39/39
f 34/41/41 36/42/42 33/44/44
f 33/44/44 36/42/42 35/43/43
f 36/45/45 28/46/46 35/48/48
f 35/48/48 28/46/46 27/47/47
f 12/49/49 10/50/50 11/52/52
f 11/52/52 10/50/50 9/51/51
f 10/53/53 18/54/54 9/56/56
f 9/56/56 18/54/54 17/55/55
f 18/57/57 20/58/58 17/60/60
f 17/60/60 20/58/58 19/59/59
f 20/61/61 12/62/62 19/64/64
f 19/64/64 12/62/62 11/63/63
f 38/65/65 2/66/66 37/68/68
f 37/68/68 2/66/66 1/67/67
f 40/69/69 38/70/70 39/72/72
f 39/72/72 38/70/70 37/71/71
f 4/73/73 40/74/74 3/76/76
f 3/76/76 40/74/74 39/75/75
f 2/77/77 4/78/78 1/80/80
f 1/80/80 4/78/78 3/79/79
f 24/82/82 16/87/87 22/81/81
f 22/81/81 16/87/87 14/88/88
f 22/81/81 14/88/88 38/99/99
f 38/99/99 14/88/88 2/98/98
f 2/98/98 14/88/88 6/85/85
f 2/98/98 6/85/85 4/97/97
f 4/97/97 6/85/85 8/86/86
f 4/97/97 8/86/86 10/93/93
f 10/93/93 8/86/86 16/87/87
f 10/93/93 16/87/87 18/96/96
f 18/96/96 16/87/87 24/82/82
f 18/96/96 24/82/82 26/89/89
f 26/89/89 24/82/82 32/83/83
f 26/89/89 32/83/83 34/92/92
f 34/92/92 32/83/83 40/100/100
f 34/92/92 40/100/100 36/91/91
f 36/91/91 40/100/100 28/90/90
f 28/90/90 40/100/100 4/97/97
f 28/90/90 4/97/97 20/95/95
f 20/95/95 4/97/97 12/94/94
f 12/94/94 4/97/97 10/93/93
f 32/83/83 30/84/84 40/100/100
f 40/100/100 30/84/84 38/99/99
f 38/99/99 30/84/84 22/81/81
f 18/96/96 26/89/89 20/95/95
f 20/95/95 26/89/89 28/90/90
f 21/102/102 13/107/107 23/101/101
f 23/101/101 13/107/107 15/108/108
f 23/101/101 15/108/108 25/110/110
f 25/110/110 15/108/108 17/115/115
f 25/110/110 17/115/115 27/109/109
f 27/109/109 17/115/115 19/116/116
f 27/109/109 19/116/116 39/119/119
f 39/119/119 19/116/116 3/118/118
f 3/118/118 19/116/116 11/113/113
f 3/118/118 11/113/113 9/114/114
f 29/103/103 37/120/120 21/102/102
f 21/102/102 37/120/120 1/117/117
f 21/102/102 1/117/117 13/107/107
f 13/107/107 1/117/117 5/106/106
f 5/106/106 1/117/117 3/118/118
f 5/106/106 3/118/118 7/105/105
f 7/105/105 3/118/118 9/114/114
f 7/105/105 9/114/114 17/115/115
f 37/120/120 29/103/103 39/119/119
f 39/119/119 29/103/103 31/104/104
f 39/119/119 31/104/104 33/111/111
f 33/111/111 31/104/104 23/101/101
f 33/111/111 23/101/101 25/110/110
f 15/108/108 7/105/105 17/115/115
f 33/111/111 35/112/112 39/119/119
f 39/119/119 35/112/112 27/109/109

# 40 vertices
# 120 texture params
# 120 normals
# 92 facets

# 1 groups
